<svg width="138" height="35" viewBox="0 0 138 35" fill="none" xmlns="http://www.w3.org/2000/svg">
<path d="M32.2287 21.5273L29.2069 9.43747C29.0906 8.97196 28.8219 8.55873 28.4436 8.26352C28.0653 7.9683 27.5992 7.80807 27.1194 7.80829H18.2812V5.65756C18.2812 5.08716 18.0546 4.54011 17.6513 4.13677C17.2479 3.73343 16.7009 3.50684 16.1305 3.50684H10.7537C10.1833 3.50684 9.63622 3.73343 9.23288 4.13677C8.82954 4.54011 8.60294 5.08716 8.60294 5.65756V7.80829H7.29234C6.81251 7.80807 6.34638 7.9683 5.96811 8.26352C5.58984 8.55873 5.32115 8.97196 5.20479 9.43747L2.18302 21.5273C2.16155 21.6125 2.15071 21.7001 2.15076 21.788V26.0895C2.15076 26.6599 2.37735 27.2069 2.78069 27.6103C3.18403 28.0136 3.73108 28.2402 4.30149 28.2402H30.1102C30.6806 28.2402 31.2277 28.0136 31.631 27.6103C32.0344 27.2069 32.261 26.6599 32.261 26.0895V21.788C32.261 21.7001 32.2502 21.6125 32.2287 21.5273ZM22.5827 12.1098H24.7334C25.0186 12.1098 25.2921 12.223 25.4938 12.4247C25.6955 12.6264 25.8088 12.8999 25.8088 13.1851C25.8088 13.4703 25.6955 13.7438 25.4938 13.9455C25.2921 14.1472 25.0186 14.2605 24.7334 14.2605H22.5827C22.2975 14.2605 22.024 14.1472 21.8223 13.9455C21.6206 13.7438 21.5073 13.4703 21.5073 13.1851C21.5073 12.8999 21.6206 12.6264 21.8223 12.4247C22.024 12.223 22.2975 12.1098 22.5827 12.1098ZM22.5827 16.4112H24.7334C25.0186 16.4112 25.2921 16.5245 25.4938 16.7262C25.6955 16.9278 25.8088 17.2014 25.8088 17.4866C25.8088 17.7718 25.6955 18.0453 25.4938 18.247C25.2921 18.4486 25.0186 18.5619 24.7334 18.5619H22.5827C22.2975 18.5619 22.024 18.4486 21.8223 18.247C21.6206 18.0453 21.5073 17.7718 21.5073 17.4866C21.5073 17.2014 21.6206 16.9278 21.8223 16.7262C22.024 16.5245 22.2975 16.4112 22.5827 16.4112ZM18.2812 12.1098C18.5664 12.1098 18.84 12.223 19.0416 12.4247C19.2433 12.6264 19.3566 12.8999 19.3566 13.1851C19.3566 13.4703 19.2433 13.7438 19.0416 13.9455C18.84 14.1472 18.5664 14.2605 18.2812 14.2605H16.1305C15.8453 14.2605 15.5718 14.1472 15.3701 13.9455C15.1684 13.7438 15.0551 13.4703 15.0551 13.1851C15.0551 12.8999 15.1684 12.6264 15.3701 12.4247C15.5718 12.223 15.8453 12.1098 16.1305 12.1098H18.2812ZM19.3566 17.4866C19.3566 17.7718 19.2433 18.0453 19.0416 18.247C18.84 18.4486 18.5664 18.5619 18.2812 18.5619H16.1305C15.8453 18.5619 15.5718 18.4486 15.3701 18.247C15.1684 18.0453 15.0551 17.7718 15.0551 17.4866C15.0551 17.2014 15.1684 16.9278 15.3701 16.7262C15.5718 16.5245 15.8453 16.4112 16.1305 16.4112H18.2812C18.5664 16.4112 18.84 16.5245 19.0416 16.7262C19.2433 16.9278 19.3566 17.2014 19.3566 17.4866ZM10.7537 5.65756H16.1305V7.80829H10.7537V5.65756ZM9.67831 12.1098H11.829C12.1142 12.1098 12.3878 12.223 12.5894 12.4247C12.7911 12.6264 12.9044 12.8999 12.9044 13.1851C12.9044 13.4703 12.7911 13.7438 12.5894 13.9455C12.3878 14.1472 12.1142 14.2605 11.829 14.2605H9.67831C9.3931 14.2605 9.11958 14.1472 8.91791 13.9455C8.71624 13.7438 8.60294 13.4703 8.60294 13.1851C8.60294 12.8999 8.71624 12.6264 8.91791 12.4247C9.11958 12.223 9.3931 12.1098 9.67831 12.1098ZM9.67831 16.4112H11.829C12.1142 16.4112 12.3878 16.5245 12.5894 16.7262C12.7911 16.9278 12.9044 17.2014 12.9044 17.4866C12.9044 17.7718 12.7911 18.0453 12.5894 18.247C12.3878 18.4486 12.1142 18.5619 11.829 18.5619H9.67831C9.3931 18.5619 9.11958 18.4486 8.91791 18.247C8.71624 18.0453 8.60294 17.7718 8.60294 17.4866C8.60294 17.2014 8.71624 16.9278 8.91791 16.7262C9.11958 16.5245 9.3931 16.4112 9.67831 16.4112ZM30.1102 26.0895H4.30149V22.8634H30.1102V26.0895Z" fill="white"/>
<path d="M46.9457 23.7171C46.1033 23.7171 45.4096 23.4611 44.8645 22.949C44.3194 22.437 44.0469 21.6276 44.0469 20.521V6.2002H47.0944V19.9263C47.0944 20.2732 47.177 20.521 47.3421 20.6696C47.5073 20.8018 47.722 20.8678 47.9863 20.8678C48.1185 20.8678 48.2589 20.8596 48.4075 20.843C48.5562 20.81 48.7131 20.7687 48.8783 20.7192V23.3455C48.5314 23.4776 48.1845 23.5685 47.8377 23.618C47.5073 23.6841 47.21 23.7171 46.9457 23.7171Z" fill="white"/>
<path d="M56.443 23.7171C55.3859 23.7171 54.4774 23.5437 53.7176 23.1968C52.9578 22.8499 52.3301 22.3874 51.8346 21.8093C51.3556 21.2147 51.0005 20.5457 50.7692 19.8024C50.538 19.0426 50.4223 18.2498 50.4223 17.4239C50.4223 16.6311 50.538 15.8547 50.7692 15.0949C51.0005 14.3351 51.3473 13.6496 51.8098 13.0385C52.2723 12.4273 52.8669 11.9401 53.5937 11.5767C54.337 11.1968 55.2207 11.0068 56.2448 11.0068C57.2028 11.0068 58.037 11.172 58.7472 11.5023C59.4575 11.8162 60.0438 12.2622 60.5063 12.8403C60.9688 13.4019 61.3157 14.0626 61.5469 14.8224C61.7947 15.5822 61.9186 16.3916 61.9186 17.2505C61.9186 17.3661 61.9103 17.5313 61.8938 17.746C61.8938 17.9442 61.8773 18.1589 61.8443 18.3902H53.4946C53.5772 19.2656 53.8993 19.9263 54.4609 20.3723C55.039 20.8183 55.7575 21.0413 56.6164 21.0413C57.2441 21.0413 57.8553 20.9339 58.4499 20.7192C59.0445 20.4879 59.5731 20.1658 60.0356 19.7529L61.5717 21.8341C60.9936 22.2801 60.4485 22.6435 59.9365 22.9243C59.4244 23.2051 58.8876 23.4033 58.326 23.5189C57.7809 23.651 57.1533 23.7171 56.443 23.7171ZM58.8711 16.854C58.9041 16.7219 58.9289 16.5898 58.9454 16.4576C58.9785 16.3255 58.995 16.2016 58.995 16.086C58.995 15.7391 58.9289 15.417 58.7968 15.1197C58.6646 14.8059 58.4829 14.5333 58.2517 14.3021C58.0204 14.0708 57.7396 13.8974 57.4093 13.7818C57.0955 13.6496 56.7321 13.5836 56.3191 13.5836C55.708 13.5836 55.1959 13.7074 54.783 13.9552C54.3701 14.203 54.0562 14.5251 53.8415 14.9215C53.6433 15.3014 53.5194 15.6978 53.4698 16.1108H59.9117L58.8711 16.854Z" fill="white"/>
<path d="M69.0298 23.7171C67.9562 23.7171 67.0312 23.4446 66.2548 22.8995C65.4785 22.3379 64.8756 21.5781 64.4462 20.6201C64.0332 19.6455 63.8268 18.5554 63.8268 17.3496C63.8268 16.0116 64.058 14.8719 64.5205 13.9304C64.9995 12.9889 65.6354 12.2704 66.4283 11.7749C67.2211 11.2628 68.0883 11.0068 69.0298 11.0068C69.6905 11.0068 70.3017 11.1472 70.8633 11.428C71.4414 11.6923 71.9369 12.097 72.3498 12.6421C72.7628 13.1871 73.0353 13.8809 73.1675 14.7233L72.5481 14.5498V6.2002H75.5956V23.4693H72.5481V20.1989L73.2666 19.852C73.0684 20.81 72.7463 21.5781 72.3003 22.1562C71.8708 22.7178 71.367 23.1225 70.7889 23.3702C70.2273 23.6015 69.641 23.7171 69.0298 23.7171ZM69.8722 20.8926C70.4834 20.8926 71.0037 20.7439 71.4331 20.4466C71.8791 20.1493 72.2177 19.7364 72.4489 19.2078C72.6967 18.6792 72.8206 18.0598 72.8206 17.3496C72.8206 16.6393 72.6967 16.0199 72.4489 15.4913C72.2177 14.9628 71.8791 14.5581 71.4331 14.2773C71.0037 13.98 70.4834 13.8313 69.8722 13.8313C69.2776 13.8313 68.7573 13.98 68.3113 14.2773C67.8653 14.5581 67.5184 14.9628 67.2707 15.4913C67.0394 16.0034 66.9238 16.6228 66.9238 17.3496C66.9238 18.0763 67.0394 18.704 67.2707 19.2326C67.5184 19.7611 67.8653 20.1741 68.3113 20.4714C68.7573 20.7522 69.2776 20.8926 69.8722 20.8926Z" fill="white"/>
<path d="M83.7772 28.7715C81.9602 28.7715 80.5232 28.4494 79.4661 27.8052C78.4255 27.161 77.9052 26.2691 77.9052 25.1294C77.9052 25.0303 77.9134 24.9064 77.93 24.7577C77.9465 24.6256 77.9712 24.4934 78.0043 24.3613L81.4234 22.2305L82.1915 23.0977L80.6306 25.0055C80.6141 25.055 80.6058 25.0963 80.6058 25.1294C80.6058 25.1624 80.6058 25.1954 80.6058 25.2285C80.6058 25.691 80.8949 26.0461 81.473 26.2939C82.0511 26.5416 82.8192 26.6655 83.7772 26.6655C84.5865 26.6655 85.206 26.5581 85.6354 26.3434C86.0649 26.1452 86.2796 25.8479 86.2796 25.4515C86.2796 25.2367 86.2218 25.0633 86.1062 24.9312C85.9905 24.799 85.8006 24.6916 85.5363 24.6091C85.272 24.5265 84.9252 24.4521 84.4957 24.3861C84.0828 24.32 83.579 24.2457 82.9843 24.1631C82.2245 24.0805 81.4812 23.9236 80.7545 23.6923C80.0277 23.4776 79.4248 23.1555 78.9458 22.7261C78.4668 22.2801 78.2273 21.6937 78.2273 20.9669C78.2273 20.3227 78.4503 19.7364 78.8962 19.2078C79.3422 18.6627 79.9286 18.2167 80.6554 17.8699L82.1419 19.0591C81.696 19.1252 81.3574 19.2739 81.1261 19.5051C80.9114 19.7364 80.804 20.0089 80.804 20.3227C80.804 20.587 80.9114 20.8018 81.1261 20.9669C81.3408 21.1156 81.6464 21.2312 82.0428 21.3138C82.4393 21.3964 82.91 21.4707 83.4551 21.5368C84.2975 21.6524 85.0738 21.7763 85.7841 21.9084C86.5108 22.0406 87.1385 22.2305 87.6671 22.4783C88.2122 22.7095 88.6251 23.0316 88.9059 23.4446C89.2032 23.8575 89.3519 24.3943 89.3519 25.055C89.3519 26.2608 88.8646 27.1775 87.8901 27.8052C86.932 28.4494 85.5611 28.7715 83.7772 28.7715ZM83.5294 20.0502C82.5053 20.0502 81.6051 19.8603 80.8288 19.4803C80.069 19.0839 79.4743 18.5554 79.0449 17.8947C78.6154 17.2174 78.4007 16.4411 78.4007 15.5657C78.4007 14.6572 78.6237 13.8644 79.0697 13.1871C79.5322 12.4934 80.1433 11.9566 80.9031 11.5767C81.6794 11.1968 82.5218 11.0068 83.4303 11.0068C84.3223 11.0068 85.1481 11.1968 85.908 11.5767C86.6843 11.9566 87.3037 12.5017 87.7662 13.2119C88.2452 13.9057 88.4847 14.7233 88.4847 15.6648C88.4847 16.5567 88.27 17.3331 87.8405 17.9938C87.4276 18.6379 86.8495 19.1417 86.1062 19.5051C85.3629 19.8685 84.504 20.0502 83.5294 20.0502ZM83.4551 17.6221C84.1158 17.6221 84.6031 17.4239 84.9169 17.0275C85.2472 16.6145 85.4124 16.119 85.4124 15.5409C85.4124 14.9463 85.239 14.4673 84.8921 14.1039C84.5453 13.724 84.0662 13.534 83.4551 13.534C82.8439 13.534 82.3567 13.724 81.9933 14.1039C81.6464 14.4838 81.473 14.9628 81.473 15.5409C81.473 16.119 81.6382 16.6145 81.9685 17.0275C82.2989 17.4239 82.7944 17.6221 83.4551 17.6221ZM87.6423 13.8313L85.4372 12.3943L88.2617 10.1396L89.8226 12.0474L87.6423 13.8313Z" fill="white"/>
<path d="M96.7288 23.7171C95.6717 23.7171 94.7633 23.5437 94.0034 23.1968C93.2436 22.8499 92.616 22.3874 92.1204 21.8093C91.6414 21.2147 91.2863 20.5457 91.0551 19.8024C90.8238 19.0426 90.7082 18.2498 90.7082 17.4239C90.7082 16.6311 90.8238 15.8547 91.0551 15.0949C91.2863 14.3351 91.6332 13.6496 92.0957 13.0385C92.5582 12.4273 93.1528 11.9401 93.8796 11.5767C94.6229 11.1968 95.5066 11.0068 96.5306 11.0068C97.4887 11.0068 98.3228 11.172 99.0331 11.5023C99.7433 11.8162 100.33 12.2622 100.792 12.8403C101.255 13.4019 101.602 14.0626 101.833 14.8224C102.081 15.5822 102.204 16.3916 102.204 17.2505C102.204 17.3661 102.196 17.5313 102.18 17.746C102.18 17.9442 102.163 18.1589 102.13 18.3902H93.7805C93.863 19.2656 94.1851 19.9263 94.7467 20.3723C95.3249 20.8183 96.0434 21.0413 96.9023 21.0413C97.53 21.0413 98.1411 20.9339 98.7357 20.7192C99.3304 20.4879 99.8589 20.1658 100.321 19.7529L101.858 21.8341C101.279 22.2801 100.734 22.6435 100.222 22.9243C99.7103 23.2051 99.1735 23.4033 98.6119 23.5189C98.0668 23.651 97.4391 23.7171 96.7288 23.7171ZM99.1569 16.854C99.19 16.7219 99.2147 16.5898 99.2313 16.4576C99.2643 16.3255 99.2808 16.2016 99.2808 16.086C99.2808 15.7391 99.2148 15.417 99.0826 15.1197C98.9505 14.8059 98.7688 14.5333 98.5375 14.3021C98.3063 14.0708 98.0255 13.8974 97.6951 13.7818C97.3813 13.6496 97.0179 13.5836 96.605 13.5836C95.9938 13.5836 95.4818 13.7074 95.0688 13.9552C94.6559 14.203 94.3421 14.5251 94.1273 14.9215C93.9291 15.3014 93.8052 15.6978 93.7557 16.1108H100.198L99.1569 16.854Z" fill="white"/>
<path d="M104.682 23.4693V11.2546H107.78V14.5746L107.309 14.6242C107.358 13.9139 107.573 13.2862 107.953 12.7412C108.333 12.1961 108.795 11.7749 109.34 11.4776C109.902 11.1637 110.472 11.0068 111.05 11.0068C111.463 11.0068 111.851 11.0646 112.214 11.1803C112.594 11.2794 112.983 11.4528 113.379 11.7006L111.892 14.4755C111.711 14.3764 111.479 14.2856 111.199 14.203C110.918 14.1204 110.637 14.0791 110.356 14.0791C110.026 14.0791 109.704 14.1369 109.39 14.2525C109.093 14.3681 108.82 14.5498 108.572 14.7976C108.341 15.0454 108.151 15.3757 108.003 15.7887C107.936 16.0199 107.879 16.3172 107.829 16.6806C107.796 17.0275 107.78 17.5395 107.78 18.2167V23.4693H104.682Z" fill="white"/>
<path d="M117.597 23.7171C116.755 23.7171 116.061 23.4611 115.516 22.949C114.971 22.437 114.698 21.6276 114.698 20.521V6.2002H117.746V19.9263C117.746 20.2732 117.828 20.521 117.994 20.6696C118.159 20.8018 118.373 20.8678 118.638 20.8678C118.77 20.8678 118.91 20.8596 119.059 20.843C119.208 20.81 119.365 20.7687 119.53 20.7192V23.3455C119.183 23.4776 118.836 23.5685 118.489 23.618C118.159 23.6841 117.861 23.7171 117.597 23.7171Z" fill="white"/>
<path d="M122.635 28.5237L125.112 22.5278L120.504 11.2546H123.874L126.748 19.4556L129.671 11.2546H132.991L125.98 28.5237H122.635Z" fill="white"/>
<path d="M134.729 23.4693V20.1989H138V23.4693H134.729Z" fill="white"/>
</svg>
