<svg width="138" height="36" viewBox="0 0 138 36" fill="none" xmlns="http://www.w3.org/2000/svg">
<path d="M32.2287 22.1513L29.2069 10.0615C29.0906 9.59598 28.8219 9.18275 28.4436 8.88754C28.0653 8.59233 27.5992 8.43209 27.1194 8.43232H18.2812V6.28159C18.2812 5.71118 18.0546 5.16413 17.6513 4.76079C17.2479 4.35745 16.7009 4.13086 16.1305 4.13086H10.7537C10.1833 4.13086 9.63622 4.35745 9.23288 4.76079C8.82954 5.16413 8.60294 5.71118 8.60294 6.28159V8.43232H7.29234C6.81251 8.43209 6.34638 8.59233 5.96811 8.88754C5.58984 9.18275 5.32115 9.59598 5.20479 10.0615L2.18302 22.1513C2.16155 22.2365 2.15071 22.3241 2.15076 22.4121V26.7135C2.15076 27.2839 2.37735 27.831 2.78069 28.2343C3.18403 28.6376 3.73108 28.8642 4.30149 28.8642H30.1102C30.6806 28.8642 31.2277 28.6376 31.631 28.2343C32.0344 27.831 32.261 27.2839 32.261 26.7135V22.4121C32.261 22.3241 32.2502 22.2365 32.2287 22.1513ZM22.5827 12.7338H24.7334C25.0186 12.7338 25.2921 12.8471 25.4938 13.0487C25.6955 13.2504 25.8088 13.5239 25.8088 13.8091C25.8088 14.0943 25.6955 14.3679 25.4938 14.5695C25.2921 14.7712 25.0186 14.8845 24.7334 14.8845H22.5827C22.2975 14.8845 22.024 14.7712 21.8223 14.5695C21.6206 14.3679 21.5073 14.0943 21.5073 13.8091C21.5073 13.5239 21.6206 13.2504 21.8223 13.0487C22.024 12.8471 22.2975 12.7338 22.5827 12.7338ZM22.5827 17.0352H24.7334C25.0186 17.0352 25.2921 17.1485 25.4938 17.3502C25.6955 17.5519 25.8088 17.8254 25.8088 18.1106C25.8088 18.3958 25.6955 18.6693 25.4938 18.871C25.2921 19.0727 25.0186 19.186 24.7334 19.186H22.5827C22.2975 19.186 22.024 19.0727 21.8223 18.871C21.6206 18.6693 21.5073 18.3958 21.5073 18.1106C21.5073 17.8254 21.6206 17.5519 21.8223 17.3502C22.024 17.1485 22.2975 17.0352 22.5827 17.0352ZM18.2812 12.7338C18.5664 12.7338 18.84 12.8471 19.0416 13.0487C19.2433 13.2504 19.3566 13.5239 19.3566 13.8091C19.3566 14.0943 19.2433 14.3679 19.0416 14.5695C18.84 14.7712 18.5664 14.8845 18.2812 14.8845H16.1305C15.8453 14.8845 15.5718 14.7712 15.3701 14.5695C15.1684 14.3679 15.0551 14.0943 15.0551 13.8091C15.0551 13.5239 15.1684 13.2504 15.3701 13.0487C15.5718 12.8471 15.8453 12.7338 16.1305 12.7338H18.2812ZM19.3566 18.1106C19.3566 18.3958 19.2433 18.6693 19.0416 18.871C18.84 19.0727 18.5664 19.186 18.2812 19.186H16.1305C15.8453 19.186 15.5718 19.0727 15.3701 18.871C15.1684 18.6693 15.0551 18.3958 15.0551 18.1106C15.0551 17.8254 15.1684 17.5519 15.3701 17.3502C15.5718 17.1485 15.8453 17.0352 16.1305 17.0352H18.2812C18.5664 17.0352 18.84 17.1485 19.0416 17.3502C19.2433 17.5519 19.3566 17.8254 19.3566 18.1106ZM10.7537 6.28159H16.1305V8.43232H10.7537V6.28159ZM9.67831 12.7338H11.829C12.1142 12.7338 12.3878 12.8471 12.5894 13.0487C12.7911 13.2504 12.9044 13.5239 12.9044 13.8091C12.9044 14.0943 12.7911 14.3679 12.5894 14.5695C12.3878 14.7712 12.1142 14.8845 11.829 14.8845H9.67831C9.3931 14.8845 9.11958 14.7712 8.91791 14.5695C8.71624 14.3679 8.60294 14.0943 8.60294 13.8091C8.60294 13.5239 8.71624 13.2504 8.91791 13.0487C9.11958 12.8471 9.3931 12.7338 9.67831 12.7338ZM9.67831 17.0352H11.829C12.1142 17.0352 12.3878 17.1485 12.5894 17.3502C12.7911 17.5519 12.9044 17.8254 12.9044 18.1106C12.9044 18.3958 12.7911 18.6693 12.5894 18.871C12.3878 19.0727 12.1142 19.186 11.829 19.186H9.67831C9.3931 19.186 9.11958 19.0727 8.91791 18.871C8.71624 18.6693 8.60294 18.3958 8.60294 18.1106C8.60294 17.8254 8.71624 17.5519 8.91791 17.3502C9.11958 17.1485 9.3931 17.0352 9.67831 17.0352ZM30.1102 26.7135H4.30149V23.4874H30.1102V26.7135Z" fill="url(#paint0_linear_2111_83338)"/>
<path d="M46.9457 24.3411C46.1033 24.3411 45.4096 24.0851 44.8645 23.5731C44.3194 23.061 44.0469 22.2517 44.0469 21.145V6.82422H47.0944V20.5503C47.0944 20.8972 47.177 21.145 47.3421 21.2936C47.5073 21.4258 47.722 21.4918 47.9863 21.4918C48.1185 21.4918 48.2589 21.4836 48.4075 21.4671C48.5562 21.434 48.7131 21.3927 48.8783 21.3432V23.9695C48.5314 24.1016 48.1845 24.1925 47.8377 24.242C47.5073 24.3081 47.21 24.3411 46.9457 24.3411Z" fill="black"/>
<path d="M56.443 24.3411C55.3859 24.3411 54.4774 24.1677 53.7176 23.8208C52.9578 23.474 52.3301 23.0115 51.8346 22.4333C51.3556 21.8387 51.0005 21.1698 50.7692 20.4265C50.538 19.6667 50.4223 18.8738 50.4223 18.0479C50.4223 17.2551 50.538 16.4788 50.7692 15.7189C51.0005 14.9591 51.3473 14.2737 51.8098 13.6625C52.2723 13.0514 52.8669 12.5641 53.5937 12.2007C54.337 11.8208 55.2207 11.6308 56.2448 11.6308C57.2028 11.6308 58.037 11.796 58.7472 12.1264C59.4575 12.4402 60.0438 12.8862 60.5063 13.4643C60.9688 14.0259 61.3157 14.6866 61.5469 15.4464C61.7947 16.2062 61.9186 17.0156 61.9186 17.8745C61.9186 17.9901 61.9103 18.1553 61.8938 18.37C61.8938 18.5682 61.8773 18.783 61.8443 19.0142H53.4946C53.5772 19.8896 53.8993 20.5503 54.4609 20.9963C55.039 21.4423 55.7575 21.6653 56.6164 21.6653C57.2441 21.6653 57.8553 21.5579 58.4499 21.3432C59.0445 21.1119 59.5731 20.7898 60.0356 20.3769L61.5717 22.4581C60.9936 22.9041 60.4485 23.2675 59.9365 23.5483C59.4244 23.8291 58.8876 24.0273 58.326 24.1429C57.7809 24.2751 57.1533 24.3411 56.443 24.3411ZM58.8711 17.4781C58.9041 17.3459 58.9289 17.2138 58.9454 17.0816C58.9785 16.9495 58.995 16.8256 58.995 16.71C58.995 16.3631 58.9289 16.041 58.7968 15.7437C58.6646 15.4299 58.4829 15.1573 58.2517 14.9261C58.0204 14.6949 57.7396 14.5214 57.4093 14.4058C57.0955 14.2737 56.7321 14.2076 56.3191 14.2076C55.708 14.2076 55.1959 14.3315 54.783 14.5792C54.3701 14.827 54.0562 15.1491 53.8415 15.5455C53.6433 15.9254 53.5194 16.3218 53.4698 16.7348H59.9117L58.8711 17.4781Z" fill="black"/>
<path d="M69.0298 24.3411C67.9562 24.3411 67.0312 24.0686 66.2548 23.5235C65.4785 22.9619 64.8756 22.2021 64.4462 21.2441C64.0332 20.2695 63.8268 19.1794 63.8268 17.9736C63.8268 16.6357 64.058 15.496 64.5205 14.5545C64.9995 13.613 65.6354 12.8944 66.4283 12.3989C67.2211 11.8869 68.0883 11.6308 69.0298 11.6308C69.6905 11.6308 70.3017 11.7712 70.8633 12.052C71.4414 12.3163 71.9369 12.721 72.3498 13.2661C72.7628 13.8112 73.0353 14.5049 73.1675 15.3473L72.5481 15.1739V6.82422H75.5956V24.0934H72.5481V20.8229L73.2666 20.476C73.0684 21.434 72.7463 22.2021 72.3003 22.7802C71.8708 23.3418 71.367 23.7465 70.7889 23.9943C70.2273 24.2255 69.641 24.3411 69.0298 24.3411ZM69.8722 21.5166C70.4834 21.5166 71.0037 21.368 71.4331 21.0706C71.8791 20.7733 72.2177 20.3604 72.4489 19.8318C72.6967 19.3033 72.8206 18.6839 72.8206 17.9736C72.8206 17.2633 72.6967 16.6439 72.4489 16.1154C72.2177 15.5868 71.8791 15.1821 71.4331 14.9013C71.0037 14.604 70.4834 14.4553 69.8722 14.4553C69.2776 14.4553 68.7573 14.604 68.3113 14.9013C67.8653 15.1821 67.5184 15.5868 67.2707 16.1154C67.0394 16.6274 66.9238 17.2468 66.9238 17.9736C66.9238 18.7004 67.0394 19.328 67.2707 19.8566C67.5184 20.3852 67.8653 20.7981 68.3113 21.0954C68.7573 21.3762 69.2776 21.5166 69.8722 21.5166Z" fill="black"/>
<path d="M83.7772 29.3955C81.9602 29.3955 80.5232 29.0734 79.4661 28.4292C78.4255 27.7851 77.9052 26.8931 77.9052 25.7534C77.9052 25.6543 77.9134 25.5304 77.93 25.3817C77.9465 25.2496 77.9712 25.1175 78.0043 24.9853L81.4234 22.8545L82.1915 23.7217L80.6306 25.6295C80.6141 25.6791 80.6058 25.7204 80.6058 25.7534C80.6058 25.7864 80.6058 25.8195 80.6058 25.8525C80.6058 26.315 80.8949 26.6701 81.473 26.9179C82.0511 27.1656 82.8192 27.2895 83.7772 27.2895C84.5865 27.2895 85.206 27.1822 85.6354 26.9674C86.0649 26.7692 86.2796 26.4719 86.2796 26.0755C86.2796 25.8608 86.2218 25.6873 86.1062 25.5552C85.9905 25.423 85.8006 25.3157 85.5363 25.2331C85.272 25.1505 84.9252 25.0762 84.4957 25.0101C84.0828 24.944 83.579 24.8697 82.9843 24.7871C82.2245 24.7045 81.4812 24.5476 80.7545 24.3164C80.0277 24.1016 79.4248 23.7795 78.9458 23.3501C78.4668 22.9041 78.2273 22.3177 78.2273 21.591C78.2273 20.9468 78.4503 20.3604 78.8962 19.8318C79.3422 19.2867 79.9286 18.8408 80.6554 18.4939L82.1419 19.6832C81.696 19.7492 81.3574 19.8979 81.1261 20.1291C80.9114 20.3604 80.804 20.6329 80.804 20.9468C80.804 21.211 80.9114 21.4258 81.1261 21.591C81.3408 21.7396 81.6464 21.8552 82.0428 21.9378C82.4393 22.0204 82.91 22.0947 83.4551 22.1608C84.2975 22.2764 85.0738 22.4003 85.7841 22.5325C86.5108 22.6646 87.1385 22.8545 87.6671 23.1023C88.2122 23.3336 88.6251 23.6557 88.9059 24.0686C89.2032 24.4815 89.3519 25.0184 89.3519 25.6791C89.3519 26.8848 88.8646 27.8016 87.8901 28.4292C86.932 29.0734 85.5611 29.3955 83.7772 29.3955ZM83.5294 20.6742C82.5053 20.6742 81.6051 20.4843 80.8288 20.1044C80.069 19.7079 79.4743 19.1794 79.0449 18.5187C78.6154 17.8415 78.4007 17.0651 78.4007 16.1897C78.4007 15.2812 78.6237 14.4884 79.0697 13.8112C79.5322 13.1174 80.1433 12.5806 80.9031 12.2007C81.6794 11.8208 82.5218 11.6308 83.4303 11.6308C84.3223 11.6308 85.1481 11.8208 85.908 12.2007C86.6843 12.5806 87.3037 13.1257 87.7662 13.8359C88.2452 14.5297 88.4847 15.3473 88.4847 16.2888C88.4847 17.1808 88.27 17.9571 87.8405 18.6178C87.4276 19.262 86.8495 19.7658 86.1062 20.1291C85.3629 20.4925 84.504 20.6742 83.5294 20.6742ZM83.4551 18.2461C84.1158 18.2461 84.6031 18.0479 84.9169 17.6515C85.2472 17.2386 85.4124 16.743 85.4124 16.1649C85.4124 15.5703 85.239 15.0913 84.8921 14.7279C84.5453 14.348 84.0662 14.158 83.4551 14.158C82.8439 14.158 82.3567 14.348 81.9933 14.7279C81.6464 15.1078 81.473 15.5868 81.473 16.1649C81.473 16.743 81.6382 17.2386 81.9685 17.6515C82.2989 18.0479 82.7944 18.2461 83.4551 18.2461ZM87.6423 14.4553L85.4372 13.0183L88.2617 10.7637L89.8226 12.6714L87.6423 14.4553Z" fill="black"/>
<path d="M96.7288 24.3411C95.6717 24.3411 94.7633 24.1677 94.0034 23.8208C93.2436 23.474 92.616 23.0115 92.1204 22.4333C91.6414 21.8387 91.2863 21.1698 91.0551 20.4265C90.8238 19.6667 90.7082 18.8738 90.7082 18.0479C90.7082 17.2551 90.8238 16.4788 91.0551 15.7189C91.2863 14.9591 91.6332 14.2737 92.0957 13.6625C92.5582 13.0514 93.1528 12.5641 93.8796 12.2007C94.6229 11.8208 95.5066 11.6308 96.5306 11.6308C97.4887 11.6308 98.3228 11.796 99.0331 12.1264C99.7433 12.4402 100.33 12.8862 100.792 13.4643C101.255 14.0259 101.602 14.6866 101.833 15.4464C102.081 16.2062 102.204 17.0156 102.204 17.8745C102.204 17.9901 102.196 18.1553 102.18 18.37C102.18 18.5682 102.163 18.783 102.13 19.0142H93.7805C93.863 19.8896 94.1851 20.5503 94.7467 20.9963C95.3249 21.4423 96.0434 21.6653 96.9023 21.6653C97.53 21.6653 98.1411 21.5579 98.7357 21.3432C99.3304 21.1119 99.8589 20.7898 100.321 20.3769L101.858 22.4581C101.279 22.9041 100.734 23.2675 100.222 23.5483C99.7103 23.8291 99.1735 24.0273 98.6119 24.1429C98.0668 24.2751 97.4391 24.3411 96.7288 24.3411ZM99.1569 17.4781C99.19 17.3459 99.2147 17.2138 99.2313 17.0816C99.2643 16.9495 99.2808 16.8256 99.2808 16.71C99.2808 16.3631 99.2148 16.041 99.0826 15.7437C98.9505 15.4299 98.7688 15.1573 98.5375 14.9261C98.3063 14.6949 98.0255 14.5214 97.6951 14.4058C97.3813 14.2737 97.0179 14.2076 96.605 14.2076C95.9938 14.2076 95.4818 14.3315 95.0688 14.5792C94.6559 14.827 94.3421 15.1491 94.1273 15.5455C93.9291 15.9254 93.8052 16.3218 93.7557 16.7348H100.198L99.1569 17.4781Z" fill="black"/>
<path d="M104.682 24.0934V11.8786H107.78V15.1986L107.309 15.2482C107.358 14.5379 107.573 13.9103 107.953 13.3652C108.333 12.8201 108.795 12.3989 109.34 12.1016C109.902 11.7878 110.472 11.6308 111.05 11.6308C111.463 11.6308 111.851 11.6887 112.214 11.8043C112.594 11.9034 112.983 12.0768 113.379 12.3246L111.892 15.0995C111.711 15.0004 111.479 14.9096 111.199 14.827C110.918 14.7444 110.637 14.7031 110.356 14.7031C110.026 14.7031 109.704 14.7609 109.39 14.8765C109.093 14.9922 108.82 15.1739 108.572 15.4216C108.341 15.6694 108.151 15.9997 108.003 16.4127C107.936 16.6439 107.879 16.9412 107.829 17.3046C107.796 17.6515 107.78 18.1636 107.78 18.8408V24.0934H104.682Z" fill="black"/>
<path d="M117.597 24.3411C116.755 24.3411 116.061 24.0851 115.516 23.5731C114.971 23.061 114.698 22.2517 114.698 21.145V6.82422H117.746V20.5503C117.746 20.8972 117.828 21.145 117.994 21.2936C118.159 21.4258 118.373 21.4918 118.638 21.4918C118.77 21.4918 118.91 21.4836 119.059 21.4671C119.208 21.434 119.365 21.3927 119.53 21.3432V23.9695C119.183 24.1016 118.836 24.1925 118.489 24.242C118.159 24.3081 117.861 24.3411 117.597 24.3411Z" fill="black"/>
<path d="M122.635 29.1478L125.112 23.1519L120.504 11.8786H123.874L126.748 20.0796L129.671 11.8786H132.991L125.98 29.1478H122.635Z" fill="black"/>
<path d="M134.729 24.0934V20.8229H138V24.0934H134.729Z" fill="black"/>
<defs>
<linearGradient id="paint0_linear_2111_83338" x1="17.2059" y1="4.13086" x2="17.2059" y2="28.8642" gradientUnits="userSpaceOnUse">
<stop stop-color="#008F33"/>
<stop offset="1" stop-color="#00290F"/>
</linearGradient>
</defs>
</svg>
