<svg width="138" height="35" viewBox="0 0 138 35" fill="none" xmlns="http://www.w3.org/2000/svg">
<path d="M32.2287 21.5858L29.2069 9.49607C29.0906 9.03055 28.8219 8.61732 28.4436 8.32211C28.0653 8.0269 27.5992 7.86666 27.1194 7.86689H18.2812V5.71616C18.2812 5.14575 18.0546 4.5987 17.6513 4.19536C17.2479 3.79202 16.7009 3.56543 16.1305 3.56543H10.7537C10.1833 3.56543 9.63622 3.79202 9.23288 4.19536C8.82954 4.5987 8.60294 5.14575 8.60294 5.71616V7.86689H7.29234C6.81251 7.86666 6.34638 8.0269 5.96811 8.32211C5.58984 8.61732 5.32115 9.03055 5.20479 9.49607L2.18302 21.5858C2.16155 21.6711 2.15071 21.7587 2.15076 21.8466V26.1481C2.15076 26.7185 2.37735 27.2655 2.78069 27.6689C3.18403 28.0722 3.73108 28.2988 4.30149 28.2988H30.1102C30.6806 28.2988 31.2277 28.0722 31.631 27.6689C32.0344 27.2655 32.261 26.7185 32.261 26.1481V21.8466C32.261 21.7587 32.2502 21.6711 32.2287 21.5858ZM22.5827 12.1683H24.7334C25.0186 12.1683 25.2921 12.2816 25.4938 12.4833C25.6955 12.685 25.8088 12.9585 25.8088 13.2437C25.8088 13.5289 25.6955 13.8024 25.4938 14.0041C25.2921 14.2058 25.0186 14.3191 24.7334 14.3191H22.5827C22.2975 14.3191 22.024 14.2058 21.8223 14.0041C21.6206 13.8024 21.5073 13.5289 21.5073 13.2437C21.5073 12.9585 21.6206 12.685 21.8223 12.4833C22.024 12.2816 22.2975 12.1683 22.5827 12.1683ZM22.5827 16.4698H24.7334C25.0186 16.4698 25.2921 16.5831 25.4938 16.7848C25.6955 16.9864 25.8088 17.26 25.8088 17.5452C25.8088 17.8304 25.6955 18.1039 25.4938 18.3056C25.2921 18.5072 25.0186 18.6205 24.7334 18.6205H22.5827C22.2975 18.6205 22.024 18.5072 21.8223 18.3056C21.6206 18.1039 21.5073 17.8304 21.5073 17.5452C21.5073 17.26 21.6206 16.9864 21.8223 16.7848C22.024 16.5831 22.2975 16.4698 22.5827 16.4698ZM18.2812 12.1683C18.5664 12.1683 18.84 12.2816 19.0416 12.4833C19.2433 12.685 19.3566 12.9585 19.3566 13.2437C19.3566 13.5289 19.2433 13.8024 19.0416 14.0041C18.84 14.2058 18.5664 14.3191 18.2812 14.3191H16.1305C15.8453 14.3191 15.5718 14.2058 15.3701 14.0041C15.1684 13.8024 15.0551 13.5289 15.0551 13.2437C15.0551 12.9585 15.1684 12.685 15.3701 12.4833C15.5718 12.2816 15.8453 12.1683 16.1305 12.1683H18.2812ZM19.3566 17.5452C19.3566 17.8304 19.2433 18.1039 19.0416 18.3056C18.84 18.5072 18.5664 18.6205 18.2812 18.6205H16.1305C15.8453 18.6205 15.5718 18.5072 15.3701 18.3056C15.1684 18.1039 15.0551 17.8304 15.0551 17.5452C15.0551 17.26 15.1684 16.9864 15.3701 16.7848C15.5718 16.5831 15.8453 16.4698 16.1305 16.4698H18.2812C18.5664 16.4698 18.84 16.5831 19.0416 16.7848C19.2433 16.9864 19.3566 17.26 19.3566 17.5452ZM10.7537 5.71616H16.1305V7.86689H10.7537V5.71616ZM9.67831 12.1683H11.829C12.1142 12.1683 12.3878 12.2816 12.5894 12.4833C12.7911 12.685 12.9044 12.9585 12.9044 13.2437C12.9044 13.5289 12.7911 13.8024 12.5894 14.0041C12.3878 14.2058 12.1142 14.3191 11.829 14.3191H9.67831C9.3931 14.3191 9.11958 14.2058 8.91791 14.0041C8.71624 13.8024 8.60294 13.5289 8.60294 13.2437C8.60294 12.9585 8.71624 12.685 8.91791 12.4833C9.11958 12.2816 9.3931 12.1683 9.67831 12.1683ZM9.67831 16.4698H11.829C12.1142 16.4698 12.3878 16.5831 12.5894 16.7848C12.7911 16.9864 12.9044 17.26 12.9044 17.5452C12.9044 17.8304 12.7911 18.1039 12.5894 18.3056C12.3878 18.5072 12.1142 18.6205 11.829 18.6205H9.67831C9.3931 18.6205 9.11958 18.5072 8.91791 18.3056C8.71624 18.1039 8.60294 17.8304 8.60294 17.5452C8.60294 17.26 8.71624 16.9864 8.91791 16.7848C9.11958 16.5831 9.3931 16.4698 9.67831 16.4698ZM30.1102 26.1481H4.30149V22.922H30.1102V26.1481Z" fill="url(#paint0_linear_2111_83343)"/>
<path d="M46.9457 23.7757C46.1033 23.7757 45.4096 23.5197 44.8645 23.0076C44.3194 22.4956 44.0469 21.6862 44.0469 20.5795V6.25879H47.0944V19.9849C47.0944 20.3318 47.177 20.5795 47.3421 20.7282C47.5073 20.8603 47.722 20.9264 47.9863 20.9264C48.1185 20.9264 48.2589 20.9182 48.4075 20.9016C48.5562 20.8686 48.7131 20.8273 48.8783 20.7778V23.4041C48.5314 23.5362 48.1845 23.627 47.8377 23.6766C47.5073 23.7427 47.21 23.7757 46.9457 23.7757Z" fill="white"/>
<path d="M56.443 23.7757C55.3859 23.7757 54.4774 23.6023 53.7176 23.2554C52.9578 22.9085 52.3301 22.446 51.8346 21.8679C51.3556 21.2733 51.0005 20.6043 50.7692 19.861C50.538 19.1012 50.4223 18.3084 50.4223 17.4825C50.4223 16.6897 50.538 15.9133 50.7692 15.1535C51.0005 14.3937 51.3473 13.7082 51.8098 13.0971C52.2723 12.4859 52.8669 11.9987 53.5937 11.6353C54.337 11.2554 55.2207 11.0654 56.2448 11.0654C57.2028 11.0654 58.037 11.2306 58.7472 11.5609C59.4575 11.8748 60.0438 12.3207 60.5063 12.8989C60.9688 13.4605 61.3157 14.1212 61.5469 14.881C61.7947 15.6408 61.9186 16.4501 61.9186 17.3091C61.9186 17.4247 61.9103 17.5899 61.8938 17.8046C61.8938 18.0028 61.8773 18.2175 61.8443 18.4488H53.4946C53.5772 19.3242 53.8993 19.9849 54.4609 20.4309C55.039 20.8769 55.7575 21.0999 56.6164 21.0999C57.2441 21.0999 57.8553 20.9925 58.4499 20.7778C59.0445 20.5465 59.5731 20.2244 60.0356 19.8115L61.5717 21.8927C60.9936 22.3387 60.4485 22.7021 59.9365 22.9829C59.4244 23.2637 58.8876 23.4619 58.326 23.5775C57.7809 23.7096 57.1533 23.7757 56.443 23.7757ZM58.8711 16.9126C58.9041 16.7805 58.9289 16.6484 58.9454 16.5162C58.9785 16.3841 58.995 16.2602 58.995 16.1446C58.995 15.7977 58.9289 15.4756 58.7968 15.1783C58.6646 14.8645 58.4829 14.5919 58.2517 14.3607C58.0204 14.1294 57.7396 13.956 57.4093 13.8404C57.0955 13.7082 56.7321 13.6422 56.3191 13.6422C55.708 13.6422 55.1959 13.766 54.783 14.0138C54.3701 14.2616 54.0562 14.5837 53.8415 14.9801C53.6433 15.36 53.5194 15.7564 53.4698 16.1693H59.9117L58.8711 16.9126Z" fill="white"/>
<path d="M69.0298 23.7757C67.9562 23.7757 67.0312 23.5032 66.2548 22.9581C65.4785 22.3965 64.8756 21.6367 64.4462 20.6787C64.0332 19.7041 63.8268 18.614 63.8268 17.4082C63.8268 16.0702 64.058 14.9305 64.5205 13.989C64.9995 13.0475 65.6354 12.329 66.4283 11.8335C67.2211 11.3214 68.0883 11.0654 69.0298 11.0654C69.6905 11.0654 70.3017 11.2058 70.8633 11.4866C71.4414 11.7509 71.9369 12.1556 72.3498 12.7007C72.7628 13.2457 73.0353 13.9395 73.1675 14.7819L72.5481 14.6084V6.25879H75.5956V23.5279H72.5481V20.2575L73.2666 19.9106C73.0684 20.8686 72.7463 21.6367 72.3003 22.2148C71.8708 22.7764 71.367 23.1811 70.7889 23.4288C70.2273 23.6601 69.641 23.7757 69.0298 23.7757ZM69.8722 20.9512C70.4834 20.9512 71.0037 20.8025 71.4331 20.5052C71.8791 20.2079 72.2177 19.795 72.4489 19.2664C72.6967 18.7378 72.8206 18.1184 72.8206 17.4082C72.8206 16.6979 72.6967 16.0785 72.4489 15.5499C72.2177 15.0214 71.8791 14.6167 71.4331 14.3359C71.0037 14.0386 70.4834 13.8899 69.8722 13.8899C69.2776 13.8899 68.7573 14.0386 68.3113 14.3359C67.8653 14.6167 67.5184 15.0214 67.2707 15.5499C67.0394 16.062 66.9238 16.6814 66.9238 17.4082C66.9238 18.1349 67.0394 18.7626 67.2707 19.2912C67.5184 19.8197 67.8653 20.2327 68.3113 20.53C68.7573 20.8108 69.2776 20.9512 69.8722 20.9512Z" fill="white"/>
<path d="M83.7772 28.8301C81.9602 28.8301 80.5232 28.508 79.4661 27.8638C78.4255 27.2196 77.9052 26.3277 77.9052 25.188C77.9052 25.0889 77.9134 24.965 77.93 24.8163C77.9465 24.6842 77.9712 24.552 78.0043 24.4199L81.4234 22.2891L82.1915 23.1563L80.6306 25.0641C80.6141 25.1136 80.6058 25.1549 80.6058 25.188C80.6058 25.221 80.6058 25.254 80.6058 25.2871C80.6058 25.7496 80.8949 26.1047 81.473 26.3524C82.0511 26.6002 82.8192 26.7241 83.7772 26.7241C84.5865 26.7241 85.206 26.6167 85.6354 26.402C86.0649 26.2038 86.2796 25.9065 86.2796 25.5101C86.2796 25.2953 86.2218 25.1219 86.1062 24.9897C85.9905 24.8576 85.8006 24.7502 85.5363 24.6677C85.272 24.5851 84.9252 24.5107 84.4957 24.4447C84.0828 24.3786 83.579 24.3043 82.9843 24.2217C82.2245 24.1391 81.4812 23.9822 80.7545 23.7509C80.0277 23.5362 79.4248 23.2141 78.9458 22.7846C78.4668 22.3387 78.2273 21.7523 78.2273 21.0255C78.2273 20.3813 78.4503 19.795 78.8962 19.2664C79.3422 18.7213 79.9286 18.2753 80.6554 17.9285L82.1419 19.1177C81.696 19.1838 81.3574 19.3325 81.1261 19.5637C80.9114 19.795 80.804 20.0675 80.804 20.3813C80.804 20.6456 80.9114 20.8603 81.1261 21.0255C81.3408 21.1742 81.6464 21.2898 82.0428 21.3724C82.4393 21.455 82.91 21.5293 83.4551 21.5954C84.2975 21.711 85.0738 21.8349 85.7841 21.967C86.5108 22.0992 87.1385 22.2891 87.6671 22.5369C88.2122 22.7681 88.6251 23.0902 88.9059 23.5032C89.2032 23.9161 89.3519 24.4529 89.3519 25.1136C89.3519 26.3194 88.8646 27.2361 87.8901 27.8638C86.932 28.508 85.5611 28.8301 83.7772 28.8301ZM83.5294 20.1088C82.5053 20.1088 81.6051 19.9188 80.8288 19.5389C80.069 19.1425 79.4743 18.614 79.0449 17.9532C78.6154 17.276 78.4007 16.4997 78.4007 15.6243C78.4007 14.7158 78.6237 13.923 79.0697 13.2457C79.5322 12.552 80.1433 12.0152 80.9031 11.6353C81.6794 11.2554 82.5218 11.0654 83.4303 11.0654C84.3223 11.0654 85.1481 11.2554 85.908 11.6353C86.6843 12.0152 87.3037 12.5603 87.7662 13.2705C88.2452 13.9642 88.4847 14.7819 88.4847 15.7234C88.4847 16.6153 88.27 17.3917 87.8405 18.0524C87.4276 18.6965 86.8495 19.2003 86.1062 19.5637C85.3629 19.9271 84.504 20.1088 83.5294 20.1088ZM83.4551 17.6807C84.1158 17.6807 84.6031 17.4825 84.9169 17.0861C85.2472 16.6731 85.4124 16.1776 85.4124 15.5995C85.4124 15.0049 85.239 14.5258 84.8921 14.1625C84.5453 13.7826 84.0662 13.5926 83.4551 13.5926C82.8439 13.5926 82.3567 13.7826 81.9933 14.1625C81.6464 14.5424 81.473 15.0214 81.473 15.5995C81.473 16.1776 81.6382 16.6731 81.9685 17.0861C82.2989 17.4825 82.7944 17.6807 83.4551 17.6807ZM87.6423 13.8899L85.4372 12.4529L88.2617 10.1982L89.8226 12.106L87.6423 13.8899Z" fill="white"/>
<path d="M96.7288 23.7757C95.6717 23.7757 94.7633 23.6023 94.0034 23.2554C93.2436 22.9085 92.616 22.446 92.1204 21.8679C91.6414 21.2733 91.2863 20.6043 91.0551 19.861C90.8238 19.1012 90.7082 18.3084 90.7082 17.4825C90.7082 16.6897 90.8238 15.9133 91.0551 15.1535C91.2863 14.3937 91.6332 13.7082 92.0957 13.0971C92.5582 12.4859 93.1528 11.9987 93.8796 11.6353C94.6229 11.2554 95.5066 11.0654 96.5306 11.0654C97.4887 11.0654 98.3228 11.2306 99.0331 11.5609C99.7433 11.8748 100.33 12.3207 100.792 12.8989C101.255 13.4605 101.602 14.1212 101.833 14.881C102.081 15.6408 102.204 16.4501 102.204 17.3091C102.204 17.4247 102.196 17.5899 102.18 17.8046C102.18 18.0028 102.163 18.2175 102.13 18.4488H93.7805C93.863 19.3242 94.1851 19.9849 94.7467 20.4309C95.3249 20.8769 96.0434 21.0999 96.9023 21.0999C97.53 21.0999 98.1411 20.9925 98.7357 20.7778C99.3304 20.5465 99.8589 20.2244 100.321 19.8115L101.858 21.8927C101.279 22.3387 100.734 22.7021 100.222 22.9829C99.7103 23.2637 99.1735 23.4619 98.6119 23.5775C98.0668 23.7096 97.4391 23.7757 96.7288 23.7757ZM99.1569 16.9126C99.19 16.7805 99.2147 16.6484 99.2313 16.5162C99.2643 16.3841 99.2808 16.2602 99.2808 16.1446C99.2808 15.7977 99.2148 15.4756 99.0826 15.1783C98.9505 14.8645 98.7688 14.5919 98.5375 14.3607C98.3063 14.1294 98.0255 13.956 97.6951 13.8404C97.3813 13.7082 97.0179 13.6422 96.605 13.6422C95.9938 13.6422 95.4818 13.766 95.0688 14.0138C94.6559 14.2616 94.3421 14.5837 94.1273 14.9801C93.9291 15.36 93.8052 15.7564 93.7557 16.1693H100.198L99.1569 16.9126Z" fill="white"/>
<path d="M104.682 23.5279V11.3132H107.78V14.6332L107.309 14.6828C107.358 13.9725 107.573 13.3448 107.953 12.7998C108.333 12.2547 108.795 11.8335 109.34 11.5362C109.902 11.2223 110.472 11.0654 111.05 11.0654C111.463 11.0654 111.851 11.1232 112.214 11.2388C112.594 11.338 112.983 11.5114 113.379 11.7591L111.892 14.5341C111.711 14.435 111.479 14.3442 111.199 14.2616C110.918 14.179 110.637 14.1377 110.356 14.1377C110.026 14.1377 109.704 14.1955 109.39 14.3111C109.093 14.4267 108.82 14.6084 108.572 14.8562C108.341 15.104 108.151 15.4343 108.003 15.8473C107.936 16.0785 107.879 16.3758 107.829 16.7392C107.796 17.0861 107.78 17.5981 107.78 18.2753V23.5279H104.682Z" fill="white"/>
<path d="M117.597 23.7757C116.755 23.7757 116.061 23.5197 115.516 23.0076C114.971 22.4956 114.698 21.6862 114.698 20.5795V6.25879H117.746V19.9849C117.746 20.3318 117.828 20.5795 117.994 20.7282C118.159 20.8603 118.373 20.9264 118.638 20.9264C118.77 20.9264 118.91 20.9182 119.059 20.9016C119.208 20.8686 119.365 20.8273 119.53 20.7778V23.4041C119.183 23.5362 118.836 23.627 118.489 23.6766C118.159 23.7427 117.861 23.7757 117.597 23.7757Z" fill="white"/>
<path d="M122.635 28.5823L125.112 22.5864L120.504 11.3132H123.874L126.748 19.5142L129.671 11.3132H132.991L125.98 28.5823H122.635Z" fill="white"/>
<path d="M134.729 23.5279V20.2575H138V23.5279H134.729Z" fill="white"/>
<defs>
<linearGradient id="paint0_linear_2111_83343" x1="17.2059" y1="3.56543" x2="17.2059" y2="28.2988" gradientUnits="userSpaceOnUse">
<stop stop-color="#008F33"/>
<stop offset="1" stop-color="white"/>
</linearGradient>
</defs>
</svg>
